<svg width="190" height="190" viewBox="0 0 190 190" fill="currentcolor" xmlns="http://www.w3.org/2000/svg">
<path d="M8.34961 3.52539C6.45703 4.19336 3.89648 6.90234 3.37695 8.75781C2.85742 10.6875 2.85742 24.9746 3.37695 26.9043C3.93359 28.8711 6.75391 31.6914 8.7207 32.248C9.68555 32.5078 15.7344 32.6562 26.459 32.6562H42.7129L43.6035 31.7285C44.1231 31.2461 44.5313 30.5781 44.5313 30.2441C44.5313 29.7988 45.0879 29.6875 47.5 29.6875H50.4688V65.832C50.4688 99.7129 50.5059 102.014 51.1367 102.756C51.8789 103.646 74.6641 117.34 76.4824 117.971C80.1191 119.232 83.7188 117.674 85.3887 114.111C86.0195 112.738 86.0938 111.477 86.0938 98.8965C86.0938 85.3887 86.0938 85.0918 86.9473 83.4961C87.8379 81.7148 90.2129 80.1562 92.0313 80.1562C93.8496 80.1562 96.2246 81.7148 97.1524 83.4961C97.9317 85.0547 97.9688 85.5371 97.9688 93.9238C97.9688 101.977 98.043 102.793 98.6738 103.572C99.6758 104.834 102.199 104.797 103.238 103.535C103.906 102.719 103.943 102.125 103.832 92.8105C103.721 81.4922 103.572 80.8984 100.381 77.7441C97.8574 75.2207 95.8906 74.4043 92.0313 74.4043C88.209 74.4043 86.0938 75.2949 83.4219 78.0039C80.2305 81.2695 80.1563 81.752 80.1563 97.5977C80.1563 109.732 80.082 111.328 79.5625 111.885C79.2285 112.219 78.7461 112.404 78.5234 112.33C78.2637 112.219 73.2168 109.213 67.2422 105.576L56.4063 99.0449V59.8945V20.7812H59.375H62.3438V25.9023C62.3438 30.8008 62.3809 31.0977 63.1973 31.8398C64.3848 32.9531 66.2031 32.916 67.3535 31.7285C68.2441 30.875 68.2813 30.6523 68.2813 25.791V20.7812H95H121.719V68.6523C121.719 108.768 121.645 116.523 121.199 116.523C120.42 116.523 117.414 119.344 116.895 120.605C116.449 121.682 116.338 121.719 114.037 121.719C111.996 121.719 111.551 121.867 110.771 122.646C109.547 123.834 109.51 125.727 110.697 126.84C111.477 127.582 111.959 127.656 115.818 127.656C119.789 127.656 120.16 127.582 120.865 126.84C121.273 126.357 121.719 125.318 121.83 124.539C122.127 122.684 122.684 122.127 124.539 121.83C125.318 121.719 126.357 121.273 126.84 120.865L127.656 120.123V70.4336V20.7812H130.625H133.594V61.0078C133.594 83.125 133.705 101.531 133.816 101.865C134.15 102.756 135.857 103.498 137.045 103.275C137.602 103.164 138.381 102.645 138.789 102.125C139.531 101.234 139.531 100.529 139.531 65.4609V29.6875H142.463C145.283 29.6875 145.395 29.7246 145.617 30.6152C146.137 32.6934 146.1 32.6934 164.283 32.582L180.982 32.4707L182.801 31.3574C183.914 30.6523 185.027 29.5391 185.732 28.4258L186.846 26.6074V17.8125V9.01758L185.732 7.19922C185.027 6.08594 183.914 4.97266 182.801 4.26758L180.982 3.1543L153.893 3.04297C124.354 2.93164 125.393 2.89453 124.836 5.00977C124.613 5.90039 124.502 5.9375 121.682 5.9375C119.27 5.9375 118.75 5.82617 118.75 5.38086C118.75 5.04688 118.342 4.37891 117.822 3.89648C116.969 3.00586 116.672 2.96875 112.813 2.96875C108.953 2.96875 108.656 3.00586 107.803 3.89648C107.283 4.37891 106.875 5.04688 106.875 5.38086C106.875 5.82617 106.318 5.9375 103.906 5.9375C101.494 5.9375 100.938 5.82617 100.938 5.38086C100.938 5.04688 100.529 4.37891 100.01 3.89648L99.1192 2.96875H54.4766C16.959 3.00586 9.61133 3.08008 8.34961 3.52539Z" fill="#333"/>
<path d="M31.7786 67.3675L32.7063 66.4768V57.719V48.9612L33.7825 49.7034C34.3762 50.1487 35.304 50.4827 35.8235 50.4827C37.2336 50.4827 38.6438 48.9612 38.6438 47.4768C38.6438 46.4749 38.0872 45.7327 34.8215 42.4299C29.6633 37.3089 29.7375 37.3089 24.6536 42.4671C20.3489 46.7717 20.0149 47.6995 21.7961 49.5178C22.9836 50.7053 24.468 50.7796 25.804 49.7034L26.7688 48.9612V57.719L26.7688 66.4768L27.6965 67.3675C28.2532 67.9612 29.0325 68.2952 29.7375 68.2952C30.4426 68.2952 31.2219 67.9612 31.7786 67.3675Z" fill="currentcolor"/>
<path d="M63.1602 39.4473L62.3438 40.3008V68.3184V96.3731L63.1973 97.1524C64.3848 98.2657 66.2031 98.2286 67.3535 97.0411L68.2812 96.1505V68.2813V40.4122L67.3535 39.5216C66.166 38.2969 64.2734 38.2598 63.1602 39.4473Z" fill="currentcolor"/>
<path d="M86.0566 39.1132C85.2773 39.3729 84.2383 39.9667 83.6445 40.412C82.5312 41.2655 80.8984 43.4921 80.8984 44.1229C80.8984 44.3827 79.9336 44.5311 78.4863 44.5311C76.3711 44.5311 75.9258 44.6425 75.1465 45.4589C73.9219 46.6464 73.9219 48.3534 75.1465 49.5409C75.8887 50.3202 76.4082 50.4686 78.375 50.4686C80.6387 50.4686 80.75 50.5058 81.1953 51.5819C81.4922 52.2128 82.1973 53.2147 82.8281 53.8085C84.7207 55.7011 85.9824 56.1835 89.0996 56.2206C91.5859 56.2206 92.1055 56.1093 93.7012 55.1073C96.0762 53.66 97.5234 51.285 97.9687 48.2792C98.3398 45.6444 98.7109 45.0507 100.195 44.7167C102.682 44.16 104.574 46.5722 103.461 48.8358C103.09 49.6893 102.57 50.0233 101.123 50.3573C98.0059 51.1366 96.9668 53.5858 98.9336 55.5526C99.7871 56.4061 100.084 56.4804 101.865 56.2948C102.941 56.1835 104.314 55.8495 104.908 55.5526C106.318 54.8104 108.248 52.8436 108.805 51.5077C109.25 50.5429 109.398 50.4686 111.625 50.4686C113.592 50.4686 114.111 50.3202 114.854 49.5409C115.447 48.9843 115.781 48.205 115.781 47.4999C115.781 46.7948 115.447 46.0155 114.854 45.4589C114.111 44.6796 113.592 44.5311 111.625 44.5311C109.361 44.5311 109.25 44.494 108.805 43.4179C108.508 42.787 107.803 41.785 107.172 41.1913C105.279 39.2987 104.018 38.8163 100.9 38.7792C98.4141 38.7792 97.8945 38.8905 96.2988 39.8925C93.9238 41.3397 92.4766 43.7147 92.0312 46.7206C91.6602 49.3554 91.2891 49.9491 89.8047 50.2831C87.3184 50.8397 85.4258 48.4276 86.5391 46.164C86.9102 45.3104 87.4297 44.9765 88.8769 44.6425C90.9922 44.1229 92.0312 43.0839 92.0312 41.4882C92.0312 39.039 89.2852 37.9257 86.0566 39.1132Z" fill="#333"/>
<path d="M162.328 67.2234L163.256 66.3328V57.575V48.8172L164.332 49.5594C165.779 50.5984 167.152 50.5242 168.266 49.4109C170.01 47.7039 169.602 46.6277 165.854 42.7683C162.031 38.8347 160.881 38.1297 159.174 38.8347C158.58 39.0945 156.576 40.8387 154.721 42.7683C150.973 46.6648 150.602 47.6297 152.346 49.3738C153.533 50.5613 155.018 50.6355 156.354 49.5594L157.319 48.8172V57.575V66.3328L158.246 67.2234C158.803 67.8172 159.582 68.1511 160.287 68.1511C160.992 68.1511 161.772 67.8172 162.328 67.2234Z" fill="currentcolor"/>
<path d="M41.9336 80.3047C41.2285 80.7129 40.3008 82.4942 37.9629 88.0234C33.918 97.6348 33.6211 98.7109 33.6211 103.906V108.174L39.0762 128.436L44.5312 148.697V152.965V157.27L41.9336 157.418C39.1875 157.566 38.0371 158.123 36.5898 160.09C35.8477 161.055 35.8105 161.574 35.8105 172.15V183.209L36.8867 184.582C38.4082 186.623 39.7441 187.031 44.5312 187.031C48.3906 187.031 48.6875 186.994 49.541 186.104C50.0605 185.621 50.4688 184.953 50.4688 184.619C50.4688 184.174 50.9512 184.063 52.8809 184.063C55.0332 184.063 55.293 184.137 55.293 184.768C55.293 185.176 55.7383 185.844 56.2949 186.252C57.2598 187.031 57.4082 187.031 80.1934 186.957C102.682 186.846 103.127 186.846 104.129 186.066C104.686 185.658 105.502 184.842 105.91 184.285C106.652 183.32 106.689 182.689 106.801 173.375C106.875 167.92 106.801 162.91 106.689 162.242C106.43 160.758 104.5 158.494 102.904 157.863C102.236 157.566 100.863 157.344 99.8242 157.344H97.9688V153.15C97.9688 149.105 98.043 148.809 100.047 142.5C103.646 131.293 103.609 131.479 103.795 121.793C103.906 117.043 103.869 112.738 103.758 112.219C103.609 111.625 103.053 111.105 102.236 110.734C101.086 110.289 100.789 110.289 99.6387 110.734C98.8594 111.068 98.3027 111.588 98.1914 112.145C98.0801 112.627 97.9316 116.598 97.8203 120.977C97.6348 129.92 97.6719 129.809 94.2578 141.053C92.0312 148.326 92.0312 148.4 92.0312 153.039V157.715H71.25H50.4688V153.15V148.549L46.9062 134.855C38.3711 101.865 38.8906 104.389 39.8555 99.8242C40.1523 98.4883 41.7109 94.1836 43.3809 90.2871C45.0508 86.3906 46.3867 82.9395 46.3867 82.6055C46.3867 81.7891 44.8281 80.1934 43.7891 80.0078C43.2695 79.8965 42.4531 80.0449 41.9336 80.3047Z" fill="#333"/>
<path d="M134.336 110.957C133.631 111.662 133.594 112.182 133.594 121.348C133.594 131.553 133.445 132.443 131.85 133.186C131.293 133.445 127.582 133.594 121.199 133.594C111.514 133.594 111.439 133.594 110.66 134.447C109.547 135.635 109.584 137.453 110.772 138.641L111.699 139.568L122.572 139.457L133.482 139.346L135.301 138.232C136.414 137.527 137.527 136.414 138.232 135.301L139.346 133.482L139.457 122.758L139.568 112.07L138.641 111.143C137.453 109.955 135.412 109.881 134.336 110.957Z" fill="currentcolor"/>
</svg>
