<?xml version="1.0" encoding="utf-8"?>
<!-- Generator: Adobe Illustrator 27.5.0, SVG Export Plug-In . SVG Version: 6.00 Build 0)  -->
<svg version="1.1" id="Layer_1" xmlns="http://www.w3.org/2000/svg" xmlns:xlink="http://www.w3.org/1999/xlink" x="0px" y="0px"
	 viewBox="0 0 720 340" style="enable-background:new 0 0 720 340;" xml:space="preserve">
<style type="text/css">
	.st0{fill:#231F20;}
	.st1{clip-path:url(#SVGID_00000109726142255260252950000002910428656639599513_);fill:#231F20;}
</style>
<g>
	<path class="st0" d="M230.2,88c0-0.7,0.2-1.2,0.5-1.6c0.4-0.4,0.9-0.6,1.6-0.6h31c2.2,0,4.3,0.3,6.3,0.9c2,0.6,3.8,1.5,5.4,2.5
		c1.6,1.1,3.1,2.4,4.5,3.9c1.3,1.5,2.4,3.1,3.4,4.9c0.9,1.7,1.6,3.6,2.1,5.5c0.5,1.9,0.7,3.9,0.7,5.8c0,2.9-0.5,5.8-1.6,8.5
		c-1,2.8-2.5,5.3-4.5,7.4c-1.9,2.2-4.3,3.9-7,5.3c-2.7,1.3-5.7,2-9,2.1H249v23.1c0,1.4-0.7,2.1-2.2,2.1h-14.4
		c-0.6,0-1.2-0.2-1.6-0.5c-0.4-0.3-0.6-0.9-0.6-1.6L230.2,88L230.2,88z M266.7,109.2c0-1-0.2-1.9-0.5-2.9c-0.3-1-0.8-1.8-1.5-2.6
		c-0.6-0.8-1.4-1.4-2.4-1.9c-0.9-0.5-2-0.7-3.1-0.7H249v16.2h10.3c1.2,0,2.2-0.2,3.2-0.7c0.9-0.5,1.7-1.1,2.3-1.8
		c0.6-0.7,1.1-1.6,1.5-2.6C266.5,111.2,266.7,110.2,266.7,109.2"/>
	<path class="st0" d="M306.7,87.6c0-0.2,0.1-0.4,0.3-0.6c0.2-0.2,0.4-0.4,0.7-0.6c0.3-0.2,0.5-0.3,0.8-0.5c0.3-0.1,0.6-0.2,0.8-0.2
		h12.4c0.6,0,1,0.2,1.4,0.5c0.4,0.3,0.7,0.6,0.9,0.9l1.2,2.8l25.5,65.7c0.3,0.6,0.2,1.2-0.1,1.6c-0.4,0.4-1,0.6-1.8,0.6h-13.9
		c-0.7,0-1.3-0.1-1.7-0.4c-0.4-0.3-0.7-0.7-0.9-1.4c-0.6-1.7-1.3-3.3-1.9-4.9c-0.6-1.6-1.2-3.3-1.8-4.9h-25.7
		c-0.6,1.6-1.2,3.3-1.9,4.9c-0.6,1.6-1.3,3.3-1.9,4.9c-0.4,1.2-1.2,1.8-2.5,1.8h-14.3c-0.6,0-1.1-0.2-1.5-0.5
		c-0.4-0.3-0.5-0.8-0.2-1.5L306.7,87.6z M315.5,108.4c-0.6,1.6-1.2,3.4-1.9,5.3c-0.6,1.9-1.3,3.8-1.9,5.8c-0.6,1.9-1.2,3.9-1.9,5.7
		c-0.6,1.9-1.3,3.7-1.9,5.3h14.9L315.5,108.4z"/>
	<path class="st0" d="M372.2,112.3l11.7-25.1c0.2-0.4,0.4-0.7,0.5-0.9c0.1-0.2,0.3-0.3,0.4-0.4c0.1-0.1,0.3-0.1,0.4-0.1
		c0.1,0,0.3-0.1,0.5-0.1h18.7c0.2,0,0.4,0.1,0.6,0.2c0.1,0.1,0.2,0.3,0.2,0.5c0,0.4-0.2,0.8-0.7,1.2l-23,40.7v27.1
		c0,1.5-0.7,2.3-2.2,2.3h-14.5c-0.6,0-1.1-0.2-1.5-0.6c-0.4-0.4-0.5-1-0.5-1.7v-27.2l-22.9-40.6c-0.4-0.4-0.6-0.8-0.6-1.2
		c0-0.2,0.1-0.4,0.2-0.5c0.1-0.1,0.3-0.2,0.5-0.2h18.7c0.2,0.1,0.4,0.1,0.5,0.1c0.1,0,0.3,0.1,0.4,0.1c0.1,0.1,0.3,0.2,0.4,0.4
		c0.1,0.2,0.3,0.5,0.5,0.9L372.2,112.3z"/>
	<path class="st0" d="M229.8,169.8c0-0.6,0.2-1.1,0.5-1.5c0.4-0.4,0.9-0.6,1.6-0.6h15.9c0.5,0,0.9,0.1,1.4,0.3
		c0.5,0.2,0.9,0.6,1.3,1.2c4.1,6.6,8.2,13.2,12.2,19.6c4,6.4,8.1,13,12.3,19.6v-38.8c0.1-0.6,0.4-1,0.8-1.4c0.4-0.3,0.8-0.5,1.4-0.5
		h13.8c0.7,0,1.2,0.2,1.7,0.6c0.5,0.4,0.7,0.9,0.7,1.6v68c0,0.6-0.2,1.1-0.6,1.4c-0.4,0.3-0.9,0.5-1.6,0.5h-15.5
		c-0.4,0-0.8-0.1-1.1-0.4c-0.3-0.3-0.7-0.7-1-1.2c-4.3-7.1-8.6-14.1-12.8-21.1c-4.2-7-8.5-14-12.8-21.1v41.7c0,0.7-0.2,1.2-0.5,1.6
		c-0.3,0.4-0.9,0.5-1.7,0.5H232c-0.8,0-1.3-0.2-1.6-0.6c-0.3-0.4-0.5-0.9-0.5-1.5V169.8z"/>
	<path class="st0" d="M425,238.7c-0.3-0.5-0.6-1.1-0.9-1.7s-0.5-1.2-0.8-1.7c-4.2-11-8.3-21.9-12.5-32.7
		c-4.1-10.8-8.3-21.7-12.5-32.7c0-0.2,0-0.3-0.1-0.4c-0.1-0.1-0.1-0.3-0.1-0.4c0-0.9,0.6-1.4,1.8-1.4h15.6c1.2,0,2.1,0.6,2.5,1.8
		l14.8,44.2l13.7-44.2c0.5-1.2,1.3-1.8,2.7-1.8h15.8c0.7,0,1.3,0.1,1.6,0.4c0.3,0.3,0.5,0.6,0.5,1.1c0,0.3,0,0.4,0,0.5v0.1
		l-8.6,24.7l6.5,19.1l15.7-44.1c0.5-1.2,1.3-1.8,2.7-1.8h15.3c0.7,0,1.3,0.1,1.6,0.4c0.3,0.3,0.5,0.6,0.5,1.1c0,0.3,0,0.4,0,0.5v0.1
		c-2.2,5.7-4.4,11.4-6.7,17c-2.3,5.7-4.6,11.3-6.9,17c-2.3,5.7-4.6,11.3-6.9,17c-2.3,5.7-4.5,11.3-6.7,17c-0.1,0.4-0.4,0.8-0.9,1.2
		s-1,0.7-1.7,0.7h-0.1h-11.7c-0.7,0-1.2-0.1-1.6-0.4c-0.4-0.3-0.6-0.6-0.8-1.1L449,218c-1.1,2.9-2.2,5.8-3.2,8.7
		c-1.1,2.8-2.1,5.7-3.2,8.7c-0.2,0.5-0.3,0.9-0.6,1.4c-0.2,0.5-0.5,1-0.8,1.4c-0.3,0.4-0.6,0.8-1,1.1c-0.4,0.3-0.8,0.4-1.3,0.4h-0.1
		h-11.7C426,239.7,425.4,239.3,425,238.7"/>
	<g>
		<g>
			<defs>
				<path id="SVGID_1_" d="M318.3,161.6c-22.3,17.4-26.3,49.7-8.9,72c9.8,12.6,24.6,19.8,40.5,19.8c11.5,0,22.4-3.7,31.5-10.8
					c10.8-8.4,17.7-20.6,19.4-34.2c1.7-13.6-2-27.1-10.4-37.9c-2.2-2.8-4.6-5.4-7.3-7.6c-0.6-0.5-1.3-0.7-2-0.7
					c-1,0-1.9,0.5-2.5,1.3l-28.4,39l-14.2-17.4c-0.6-0.7-1.4-1.1-2.2-1.1c-0.9,0-1.8,0.4-2.3,1.2l-6,8.3c-1,1.3-0.9,3.3,0.1,4.5
					l23.1,28.2c0.6,0.7,1.4,1.1,2.2,1.1c0.9,0,1.8-0.5,2.3-1.2l29.7-40.7c8,15.6,3.8,34.9-10.2,45.9c-6.5,5.1-14.4,7.8-22.6,7.8
					c-11.5,0-22.1-5.2-29.1-14.2c-6-7.8-8.7-17.4-7.5-27.2c1.2-9.8,6.2-18.5,13.9-24.6c6.5-5.1,14.4-7.8,22.6-7.8c5.1,0,10,1,14.5,3
					c1.5,0.6,3.4,0.1,4.3-1.2l4.8-6.6c0.5-0.7,0.7-1.7,0.5-2.5c-0.2-0.8-0.8-1.6-1.6-2c-7-3.4-14.6-5.2-22.6-5.2
					C338.3,150.8,327.4,154.5,318.3,161.6"/>
			</defs>
			<use xlink:href="#SVGID_1_"  style="overflow:visible;fill:#231F20;"/>
			<clipPath id="SVGID_00000034063140188437851590000015698052099374780544_">
				<use xlink:href="#SVGID_1_"  style="overflow:visible;"/>
			</clipPath>
			<polygon style="clip-path:url(#SVGID_00000034063140188437851590000015698052099374780544_);fill:#231F20;" points="453.8,202.4 
				346.8,308.7 240.6,201.8 347.6,95.5 			"/>
		</g>
	</g>
</g>
</svg>
