<?xml version="1.0" encoding="utf-8"?>
<!-- Generator: Adobe Illustrator 24.1.1, SVG Export Plug-In . SVG Version: 6.00 Build 0)  -->
<svg version="1.1" id="Layer_1" xmlns="http://www.w3.org/2000/svg" xmlns:xlink="http://www.w3.org/1999/xlink" x="0px" y="0px"
	 viewBox="0 0 512 512" style="enable-background:new 0 0 512 512;" xml:space="preserve">
<style type="text/css">
	.st0{fill:#333333;}
</style>
<g id="XMLID_1_">
	<rect id="XMLID_10_" x="46.6" y="319.7" class="st0" width="192.3" height="192.3"/>
	<rect id="XMLID_11_" x="271.4" y="319.7" class="st0" width="192.3" height="192.3"/>
	<path id="XMLID_15_" class="st0" d="M303,159.8v-1.7c47-4.3,128.2-21.4,128.2-77.8c0-40.2-40.2-80.3-80.3-80.3
		c-35.9,0-72.7,33.3-78.6,128.2h-0.9h-32.5h-0.9C231.2,33.3,195.3,0,159.4,0c-40.2,0-80.3,40.2-80.3,80.3
		c0,57.3,81.2,73.5,128.2,77.8v1.7H15v128.2h224.8V159.8h32.5v128.2H497V159.8H303z M110.7,79.5c0-22.2,25.6-47.9,47.9-47.9
		c24.8,0,41.9,35.9,47,94C162,120.5,110.7,106,110.7,79.5z M351.7,31.6c22.2,0,47.9,25.6,47.9,47.9c0,26.5-51.3,41-94.9,46.2
		C309,67.5,326.9,31.6,351.7,31.6z"/>
</g>
</svg>
