<?xml version="1.0" encoding="utf-8"?>
<!-- Generator: Adobe Illustrator 27.2.0, SVG Export Plug-In . SVG Version: 6.00 Build 0)  -->
<svg version="1.1" id="Layer_1" xmlns="http://www.w3.org/2000/svg" xmlns:xlink="http://www.w3.org/1999/xlink" x="0px" y="0px"
	 viewBox="0 0 512 512" style="enable-background:new 0 0 512 512;" xml:space="preserve">
<style type="text/css">
	.st0{fill:#212121;}
</style>
<g>
	<path class="st0" d="M99.56,0C44.57,0,0,44.57,0,99.56v53.01c0,15.71,12.74,28.44,28.44,28.44s28.44-12.74,28.44-28.44V99.56
		c0-23.56,19.1-42.67,42.67-42.67h53.01c15.71,0,28.44-12.74,28.44-28.44S168.28,0,152.57,0H99.56z M359.43,0
		c-15.71,0-28.44,12.74-28.44,28.44s12.74,28.44,28.44,28.44h53.01c23.56,0,42.67,19.1,42.67,42.67v53.01
		c0,15.71,12.73,28.44,28.44,28.44c15.71,0,28.44-12.74,28.44-28.44V99.56C512,44.57,467.43,0,412.44,0H359.43z M56.89,359.44
		c0-15.71-12.74-28.44-28.44-28.44S0,343.73,0,359.44v53.01C0,467.43,44.57,512,99.56,512h53.01c15.71,0,28.44-12.73,28.44-28.44
		c0-15.71-12.74-28.44-28.44-28.44H99.56c-23.56,0-42.67-19.1-42.67-42.67V359.44z M512,359.44c0-15.71-12.73-28.44-28.44-28.44
		c-15.71,0-28.44,12.73-28.44,28.44v53.01c0,23.56-19.1,42.67-42.67,42.67h-53.01c-15.71,0-28.44,12.74-28.44,28.44
		c0,15.71,12.74,28.44,28.44,28.44h53.01c54.98,0,99.56-44.57,99.56-99.56V359.44z M142.22,227.56c-15.71,0-28.44,12.74-28.44,28.44
		c0,15.71,12.74,28.44,28.44,28.44h227.56c15.71,0,28.44-12.73,28.44-28.44c0-15.71-12.73-28.44-28.44-28.44H142.22z"/>
</g>
</svg>
