<?xml version="1.0" standalone="no"?>
<!DOCTYPE svg PUBLIC "-//W3C//DTD SVG 20010904//EN"
 "http://www.w3.org/TR/2001/REC-SVG-20010904/DTD/svg10.dtd">
<svg version="1.0" xmlns="http://www.w3.org/2000/svg"
 width="512.000000pt" height="512.000000pt" viewBox="0 0 512.000000 512.000000"
 preserveAspectRatio="xMidYMid meet">

<g transform="translate(0.000000,512.000000) scale(0.100000,-0.100000)"
fill="#333" stroke="none">
<path d="M225 5025 c-51 -18 -120 -91 -134 -141 -14 -52 -14 -437 0 -489 15
-53 91 -129 144 -144 26 -7 189 -11 478 -11 l438 0 24 25 c14 13 25 31 25 40
0 12 15 15 80 15 l80 0 0 -974 c0 -913 1 -975 18 -995 20 -24 634 -393 683
-410 98 -34 195 8 240 104 17 37 19 71 19 410 0 364 0 372 23 415 24 48 88 90
137 90 49 0 113 -42 138 -90 21 -42 22 -55 22 -281 0 -217 2 -239 19 -260 27
-34 95 -33 123 1 18 22 19 38 16 289 -3 305 -7 321 -93 406 -68 68 -121 90
-225 90 -103 0 -160 -24 -232 -97 -86 -88 -88 -101 -88 -528 0 -327 -2 -370
-16 -385 -9 -9 -22 -14 -28 -12 -7 3 -143 84 -304 182 l-292 176 0 1055 0
1054 80 0 80 0 0 -138 c0 -132 1 -140 23 -160 32 -30 81 -29 112 3 24 23 25
29 25 160 l0 135 720 0 720 0 0 -1290 c0 -1081 -2 -1290 -14 -1290 -21 0 -102
-76 -116 -110 -12 -29 -15 -30 -77 -30 -55 0 -67 -4 -88 -25 -33 -32 -34 -83
-2 -113 21 -20 34 -22 138 -22 107 0 117 2 136 22 11 13 23 41 26 62 8 50 23
65 73 73 21 3 49 15 62 26 l22 20 0 1339 0 1338 80 0 80 0 0 -1084 c0 -596 3
-1092 6 -1101 9 -24 55 -44 87 -38 15 3 36 17 47 31 20 24 20 43 20 988 l0
964 79 0 c76 0 79 -1 85 -25 14 -56 13 -56 503 -53 l450 3 49 30 c30 19 60 49
79 79 l30 49 0 237 0 237 -30 49 c-19 30 -49 60 -79 79 l-49 30 -730 3 c-796
3 -768 4 -783 -53 -6 -24 -9 -25 -85 -25 -65 0 -79 3 -79 15 0 9 -11 27 -25
40 -23 24 -31 25 -135 25 -104 0 -112 -1 -135 -25 -14 -13 -25 -31 -25 -40 0
-12 -15 -15 -80 -15 -65 0 -80 3 -80 15 0 9 -11 27 -25 40 l-24 25 -1203 0
c-1011 -1 -1209 -3 -1243 -15z"/>
<path d="M745 4055 l-25 -24 0 -236 0 -236 -29 20 c-16 12 -41 21 -55 21 -38
0 -76 -41 -76 -81 0 -27 15 -47 103 -136 139 -138 137 -138 274 1 116 116 125
141 77 190 -32 32 -72 34 -108 5 l-26 -20 0 236 0 236 -25 24 c-15 16 -36 25
-55 25 -19 0 -40 -9 -55 -25z"/>
<path d="M1702 4057 l-22 -23 0 -755 0 -756 23 -21 c32 -30 81 -29 112 3 l25
24 0 751 0 751 -25 24 c-32 33 -83 34 -113 2z"/>
<path d="M2319 4066 c-21 -7 -49 -23 -65 -35 -30 -23 -74 -83 -74 -100 0 -7
-26 -11 -65 -11 -57 0 -69 -3 -90 -25 -33 -32 -33 -78 0 -110 20 -21 34 -25
87 -25 61 0 64 -1 76 -30 8 -17 27 -44 44 -60 51 -51 85 -64 169 -65 67 0 81
3 124 30 64 39 103 103 115 184 10 71 20 87 60 96 67 15 118 -50 88 -111 -10
-23 -24 -32 -63 -41 -84 -21 -112 -87 -59 -140 23 -23 31 -25 79 -20 29 3 66
12 82 20 38 20 90 73 105 109 12 26 16 28 76 28 53 0 67 4 87 25 16 15 25 36
25 55 0 19 -9 40 -25 55 -20 21 -34 25 -87 25 -61 0 -64 1 -76 30 -8 17 -27
44 -44 60 -51 51 -85 64 -169 65 -67 0 -81 -3 -124 -30 -64 -39 -103 -103
-115 -184 -10 -71 -20 -87 -60 -96 -67 -15 -118 50 -88 111 10 23 24 32 63 41
57 14 85 42 85 85 0 66 -74 96 -161 64z"/>
<path d="M4265 4055 l-25 -24 0 -236 0 -236 -29 20 c-39 28 -76 26 -106 -4
-47 -46 -36 -75 65 -179 103 -106 134 -125 180 -106 16 7 70 54 120 106 101
105 111 131 64 178 -32 32 -72 34 -108 5 l-26 -20 0 236 0 236 -25 24 c-15 16
-36 25 -55 25 -19 0 -40 -9 -55 -25z"/>
<path d="M1130 2956 c-19 -11 -44 -59 -107 -208 -109 -259 -117 -288 -117
-428 l0 -115 147 -546 147 -546 0 -115 0 -116 -70 -4 c-74 -4 -105 -19 -144
-72 -20 -26 -21 -40 -21 -325 l0 -298 29 -37 c41 -55 77 -66 206 -66 104 0
112 1 135 25 14 13 25 31 25 40 0 12 13 15 65 15 58 0 65 -2 65 -19 0 -11 12
-29 27 -40 26 -21 30 -21 644 -19 606 3 618 3 645 24 15 11 37 33 48 48 20 26
21 43 24 294 2 147 0 282 -3 300 -7 40 -59 101 -102 118 -18 8 -55 14 -83 14
l-50 0 0 113 c0 109 2 117 56 287 97 302 96 297 101 558 3 128 2 244 -1 258
-4 16 -19 30 -41 40 -31 12 -39 12 -70 0 -21 -9 -36 -23 -39 -38 -3 -13 -7
-120 -10 -238 -5 -241 -4 -238 -96 -541 -60 -196 -60 -198 -60 -323 l0 -126
-560 0 -560 0 0 123 0 124 -96 369 c-230 889 -216 821 -190 944 8 36 50 152
95 257 45 105 81 198 81 207 0 22 -42 65 -70 70 -14 3 -36 -1 -50 -8z"/>
<path d="M3620 2130 c-19 -19 -20 -33 -20 -280 0 -275 -4 -299 -47 -319 -15
-7 -115 -11 -287 -11 -261 0 -263 0 -284 -23 -30 -32 -29 -81 3 -113 l25 -25
293 3 294 3 49 30 c30 19 60 49 79 79 l30 49 3 289 3 288 -25 25 c-32 32 -87
34 -116 5z"/>
</g>
</svg>
